<svg width="916" height="780" viewBox="0 0 916 780" fill="none" xmlns="http://www.w3.org/2000/svg">
<path d="M55.7296 267.991L57.1544 268.554L58.3024 267.54C59.1667 266.776 60.018 266.024 60.8576 265.282C84.5927 244.3 98.9437 231.613 130.603 217.184L131.301 216.866L131.7 216.211L174.919 145.353L242.045 191.59L243.061 192.29L244.235 191.909C297.33 174.683 330.049 171.323 391.704 171.486L392.579 171.489L393.264 170.945L460.971 117.225L525.095 170.903L525.774 171.471L526.658 171.486C589.629 172.543 623.197 176.464 679.101 191.94L680.294 192.27L681.28 191.522L745.889 142.498L789.077 219.158L789.42 219.767L790.03 220.11C819.891 236.902 832.536 247.611 853.411 267.477L854.537 268.549L855.996 268.013L912.128 247.395C896.604 297.466 882.154 331.428 864.72 357.831C847.12 384.484 826.394 403.564 798.156 423.738C764.981 390.74 730.606 365.46 680.035 346.708C628.785 327.704 561.016 315.446 461.187 308.491L461.034 308.48L460.881 308.488C280.191 318.087 188.764 342.852 120.171 423.543C93.613 402.597 75.2653 383.885 58.2133 357.666C41.3108 331.676 25.638 298.248 4.57918 247.804L55.7296 267.991Z" fill="#F3D400" stroke="#B324D6" stroke-width="5"/>
<path d="M902.349 775H267.597L366.702 604.818H602.734H611.528L607.031 597.261L465.94 360.178L461.604 352.893L457.326 360.213L339.617 561.626H143.654L461.642 10.0139L902.349 775Z" fill="url(#paint0_linear_8_2)" stroke="#FFE953" stroke-width="10" stroke-linecap="round"/>
<path d="M122.714 591.186L48.2965 405.487C92.471 452.466 127.707 484.231 162.479 505.611C199.691 528.49 236.257 539.406 282.459 544.505L283.189 544.586L283.847 544.259L466.579 453.361L643.892 544.245L644.521 544.568L645.225 544.513C738.444 537.309 793.38 496.856 886.39 405.066L799.081 603.126C751.247 648.177 710.244 679.33 660.283 701.188C610.214 723.094 550.977 735.74 466.581 743.491C379.035 736.47 317.352 723.728 265.433 700.108C213.616 676.536 171.333 642.043 122.714 591.186Z" fill="#FFE953" stroke="#B324D6" stroke-width="5"/>
<defs>
<linearGradient id="paint0_linear_8_2" x1="911" y1="-61.9831" x2="38.8435" y2="814.858" gradientUnits="userSpaceOnUse">
<stop stop-color="#E000DC"/>
<stop offset="1" stop-color="#270C81"/>
</linearGradient>
</defs>
</svg>
